<?xml version="1.0"?>
<svg height="121" width="123.5" xmlns="http://www.w3.org/2000/svg">
    <g class="layer" id="imagebot_2">
        <title>Layer 1</title>
        <g id="svg_1">
            <rect fill="none" height="249.25" id="imagebot_13" ry="18.05" stroke="#d40000"
                stroke-width="20" transform="matrix(0.4585 0 0 0.448855 -137.882 -17.2807)"
                width="249.03" x="310.88" y="48.56" />
            <path
                d="m95.84,58.18c0,18.45 -15.27,33.41 -34.1,33.41s-34.09,-14.96 -34.09,-33.41s15.27,-33.41 34.09,-33.41s34.1,14.96 34.1,33.41z"
                fill="#d40000" id="imagebot_12" />
            <g fill="#d40000" id="imagebot_4"
                transform="matrix(0.36166 0 0 0.354357 -21.3906 -142.848)">
                <path
                    d="m127.21,712.02c-2.5,-4.44 -5.21,-8.83 -8.12,-13.16c-2.91,-4.33 -6.01,-8.42 -9.3,-12.26l0,25.42l-8.62,0l0,-38.81l7.11,0c1.23,1.23 2.6,2.75 4.09,4.54c1.49,1.79 3.01,3.71 4.54,5.77c1.56,2.01 3.11,4.12 4.64,6.32c1.53,2.17 2.97,4.26 4.32,6.28l0,-22.91l8.68,0l0,38.81l-7.34,0"
                    fill="#d40000" id="imagebot_11" />
                <path
                    d="m150.84,692.59c0,1.9 0.22,3.62 0.67,5.15c0.49,1.53 1.16,2.86 2.02,3.98c0.89,1.08 1.98,1.92 3.25,2.52c1.27,0.6 2.72,0.89 4.36,0.89c1.61,0 3.05,-0.29 4.32,-0.89c1.3,-0.6 2.39,-1.44 3.24,-2.52c0.9,-1.12 1.57,-2.45 2.02,-3.98c0.49,-1.53 0.73,-3.25 0.73,-5.15c0,-1.9 -0.24,-3.62 -0.73,-5.15c-0.45,-1.57 -1.12,-2.9 -2.02,-3.98c-0.85,-1.12 -1.94,-1.98 -3.24,-2.57c-1.27,-0.6 -2.71,-0.9 -4.32,-0.9c-1.64,0 -3.09,0.32 -4.36,0.95c-1.27,0.6 -2.36,1.46 -3.25,2.58c-0.86,1.08 -1.53,2.41 -2.02,3.97c-0.45,1.53 -0.67,3.23 -0.67,5.1m29.62,0c0,3.32 -0.5,6.25 -1.51,8.79c-0.97,2.5 -2.31,4.61 -4.03,6.33c-1.72,1.68 -3.77,2.95 -6.16,3.81c-2.35,0.86 -4.89,1.29 -7.62,1.29c-2.65,0 -5.15,-0.43 -7.5,-1.29c-2.35,-0.86 -4.41,-2.13 -6.16,-3.81c-1.75,-1.72 -3.14,-3.83 -4.14,-6.33c-1.01,-2.54 -1.52,-5.47 -1.52,-8.79c0,-3.32 0.53,-6.23 1.57,-8.74c1.05,-2.53 2.45,-4.66 4.2,-6.38c1.79,-1.72 3.85,-3.01 6.16,-3.86c2.35,-0.86 4.82,-1.29 7.39,-1.29c2.65,0 5.16,0.43 7.51,1.29c2.35,0.85 4.4,2.14 6.16,3.86c1.75,1.72 3.13,3.85 4.14,6.38c1.01,2.51 1.51,5.42 1.51,8.74"
                    fill="#d40000" id="imagebot_10" />
                <path
                    d="m213.73,712.02c-2.5,-4.44 -5.21,-8.83 -8.12,-13.16c-2.91,-4.33 -6.01,-8.42 -9.3,-12.26l0,25.42l-8.62,0l0,-38.81l7.11,0c1.23,1.23 2.6,2.75 4.09,4.54c1.49,1.79 3.01,3.71 4.54,5.77c1.56,2.01 3.11,4.12 4.64,6.32c1.53,2.17 2.97,4.26 4.32,6.28l0,-22.91l8.68,0l0,38.81l-7.34,0"
                    fill="#d40000" id="imagebot_9" />
                <path d="m226.94,691.53l16.24,0l0,7.56l-16.24,0l0,-7.56" fill="#d40000"
                    id="imagebot_8" />
                <path
                    d="m258.94,712.02c-1.53,-3.25 -3.04,-6.63 -4.54,-10.14s-2.91,-6.98 -4.25,-10.41c-1.35,-3.44 -2.6,-6.72 -3.75,-9.86c-1.12,-3.13 -2.09,-5.93 -2.92,-8.4l9.64,0c0.74,2.24 1.55,4.67 2.4,7.28l2.69,7.73c0.94,2.58 1.83,5.04 2.69,7.39c0.86,2.35 1.66,4.39 2.41,6.11c0.71,-1.72 1.49,-3.76 2.35,-6.11c0.9,-2.35 1.79,-4.81 2.69,-7.39c0.93,-2.58 1.83,-5.15 2.69,-7.73c0.89,-2.61 1.71,-5.04 2.46,-7.28l9.3,0c-0.86,2.47 -1.85,5.27 -2.97,8.4s-2.35,6.42 -3.7,9.86c-1.34,3.43 -2.76,6.9 -4.25,10.41c-1.5,3.51 -3.01,6.89 -4.54,10.14l-8.4,0"
                    fill="#d40000" id="imagebot_7" />
                <path
                    d="m287.88,712.02l0,-38.81l26.21,0l0,7.34l-17.47,0l0,7.61l15.51,0l0,7.17l-15.51,0l0,9.35l18.76,0l0,7.34l-27.5,0"
                    fill="#d40000" id="imagebot_6" />
                <path
                    d="m340.71,679.94c-4.07,0 -7.02,1.14 -8.85,3.42c-1.79,2.24 -2.69,5.32 -2.69,9.24c0,1.9 0.23,3.64 0.68,5.2c0.44,1.53 1.12,2.86 2.01,3.98c0.9,1.12 2.02,2 3.36,2.63c1.35,0.6 2.91,0.9 4.71,0.9c0.97,0 1.79,-0.02 2.46,-0.06c0.71,-0.04 1.33,-0.11 1.85,-0.22l0,-13.5l8.73,0l0,19.21c-1.04,0.41 -2.72,0.84 -5.04,1.29c-2.31,0.48 -5.17,0.73 -8.56,0.73c-2.92,0 -5.57,-0.45 -7.96,-1.35c-2.35,-0.89 -4.36,-2.2 -6.04,-3.92s-2.99,-3.82 -3.92,-6.33c-0.9,-2.5 -1.35,-5.35 -1.35,-8.56c0,-3.25 0.51,-6.13 1.51,-8.63c1.01,-2.5 2.39,-4.61 4.15,-6.33c1.75,-1.75 3.81,-3.08 6.16,-3.97c2.39,-0.9 4.93,-1.35 7.61,-1.35c1.83,0 3.48,0.13 4.93,0.4c1.5,0.22 2.76,0.5 3.81,0.84c1.08,0.29 1.96,0.61 2.63,0.95c0.71,0.33 1.22,0.6 1.51,0.78l-2.52,7c-1.19,-0.63 -2.57,-1.17 -4.14,-1.62c-1.53,-0.49 -3.21,-0.73 -5.04,-0.73"
                    fill="#d40000" id="imagebot_5" />
            </g>
        </g>
    </g>
</svg>