<svg xmlns="http://www.w3.org/2000/svg" viewBox="0 0 32 32"><g id="box"><path d="M28,18a1,1,0,0,0,1-1V7s0,0,0-.06,0-.07,0-.1a1,1,0,0,0-.08-.25l0-.08a1.13,1.13,0,0,0-.22-.27l0,0a.71.71,0,0,0-.17-.11l-.09,0-.05,0-13-4a1,1,0,0,0-.88.15l-11,8h0s0,0,0,.05a.77.77,0,0,0-.23.28l0,.12a.94.94,0,0,0-.06.28A.25.25,0,0,0,3,11V25a1,1,0,0,0,.73,1l14,4A.84.84,0,0,0,18,30a1.13,1.13,0,0,0,.32-.05l.09-.05.19-.1h0l10-8a1,1,0,1,0-1.24-1.56L19,26.92V15.48l8-6.4V17A1,1,0,0,0,28,18ZM15.18,4.1,25.9,7.4,22.79,9.89,11.85,6.52ZM5,12.33l8.73,2.49a1,1,0,0,0,.54-1.92l-8-2.3L9.83,8,20.9,11.4l-3.52,2.82,0,0a.84.84,0,0,0-.18.23.86.86,0,0,0-.07.1A1.07,1.07,0,0,0,17,15V27.67L5,24.25Z"/></g></svg>