<?xml version="1.0"?>
<svg height="121" width="123.5" xmlns="http://www.w3.org/2000/svg">
    <g class="layer">
        <title>Layer 1</title>
        <g id="svg_1" transform="matrix(1.00351 0 0 1.00265 -5.25105 -7.13988)">
            <rect fill="none" height="249.25" id="imagebot_19" ry="18.05" stroke="#007a00"
                stroke-width="20" transform="matrix(0.457017 0 0 0.448154 -17.5513 -21.2606)"
                width="249.03" x="59.92" y="73.52" />
            <path
                d="m100.73,65.27c0,18.42 -15.22,33.36 -33.99,33.36s-33.99,-14.94 -33.99,-33.36s15.22,-33.36 33.99,-33.36s33.99,14.94 33.99,33.36z"
                fill="#008000" id="imagebot_18" />
            <g fill="#008000" id="imagebot_14"
                transform="matrix(0.456821 0 0 0.448333 -19.241 -23.5802)">
                <path
                    d="m153.51,312.49c-1.21,-2.56 -2.4,-5.23 -3.58,-8c-1.18,-2.77 -2.3,-5.51 -3.36,-8.22s-2.05,-5.3 -2.96,-7.78c-0.88,-2.47 -1.65,-4.68 -2.3,-6.62l7.6,0c0.59,1.76 1.23,3.68 1.9,5.74c0.71,2.03 1.42,4.07 2.13,6.1c0.73,2.03 1.44,3.98 2.12,5.83c0.67,1.86 1.31,3.46 1.9,4.82c0.56,-1.36 1.18,-2.96 1.85,-4.82c0.71,-1.85 1.42,-3.8 2.12,-5.83c0.74,-2.03 1.45,-4.07 2.13,-6.1c0.7,-2.06 1.35,-3.98 1.94,-5.74l7.34,0c-0.68,1.94 -1.46,4.15 -2.35,6.62c-0.88,2.48 -1.85,5.07 -2.91,7.78c-1.06,2.71 -2.18,5.45 -3.36,8.22s-2.37,5.44 -3.58,8l-6.63,0"
                    fill="#008000" id="imagebot_17" />
                <path
                    d="m176.34,312.49l0,-30.63l20.68,0l0,5.79l-13.79,0l0,6.01l12.25,0l0,5.66l-12.25,0l0,7.38l14.81,0l0,5.79l-21.7,0"
                    fill="#008000" id="imagebot_16" />
                <path
                    d="m218.04,287.16c-3.21,0 -5.54,0.9 -6.98,2.7c-1.42,1.76 -2.12,4.19 -2.12,7.29c0,1.5 0.17,2.87 0.53,4.11c0.35,1.21 0.88,2.25 1.59,3.13c0.7,0.89 1.59,1.58 2.65,2.08c1.06,0.47 2.3,0.71 3.71,0.71c0.77,0 1.42,-0.02 1.95,-0.05c0.56,-0.02 1.04,-0.08 1.45,-0.17l0,-10.65l6.9,0l0,15.16c-0.83,0.32 -2.15,0.66 -3.98,1.01c-1.83,0.39 -4.08,0.58 -6.76,0.58c-2.3,0 -4.39,-0.36 -6.28,-1.06c-1.85,-0.71 -3.44,-1.74 -4.77,-3.1s-2.36,-3.02 -3.09,-4.99c-0.71,-1.97 -1.06,-4.23 -1.06,-6.76c0,-2.57 0.4,-4.83 1.19,-6.81c0.8,-1.97 1.89,-3.64 3.27,-4.99c1.39,-1.39 3.01,-2.43 4.86,-3.14c1.89,-0.71 3.89,-1.06 6.01,-1.06c1.45,0 2.74,0.1 3.89,0.31c1.18,0.18 2.18,0.4 3.01,0.66c0.85,0.24 1.54,0.49 2.07,0.75c0.56,0.27 0.96,0.48 1.2,0.62l-1.99,5.53c-0.95,-0.5 -2.04,-0.93 -3.27,-1.29c-1.21,-0.38 -2.54,-0.57 -3.98,-0.57"
                    fill="#008000" id="imagebot_15" />
            </g>
        </g>
    </g>
</svg>